<svg width="32" height="32" viewBox="0 0 32 32" fill="none" xmlns="http://www.w3.org/2000/svg">
<g clip-path="url(#clip0_1083_50505)">
<path d="M30.7426 9.7718C29.9368 7.86648 28.7832 6.15552 27.3138 4.68616C25.8445 3.21682 24.1335 2.06318 22.2282 1.25745C20.2552 0.423088 18.1598 0 16 0C13.8402 0 11.7448 0.423088 9.7718 1.25745C7.86648 2.06318 6.15552 3.21682 4.68616 4.68616C3.21682 6.15552 2.06318 7.86648 1.25745 9.7718C0.423088 11.7448 0 13.8402 0 16C0 18.1598 0.423088 20.2552 1.25745 22.2282C2.06318 24.1335 3.21682 25.8445 4.68616 27.3138C6.15552 28.7832 7.86648 29.9368 9.7718 30.7426C11.7448 31.5769 13.8402 32 16 32C18.1598 32 20.2552 31.5769 22.2282 30.7426C24.1335 29.9368 25.8445 28.7832 27.3138 27.3138C28.7832 25.8445 29.9368 24.1335 30.7426 22.2282C31.5769 20.2552 32 18.1598 32 16C32 13.8402 31.5769 11.7448 30.7426 9.7718ZM21.8098 2.24644C23.5869 2.99812 25.1834 4.07444 26.5543 5.44536C27.9252 6.81628 29.0015 8.41272 29.7532 10.1899C30.4036 11.7276 30.7859 13.3459 30.894 15.0124L28.897 13.7679C24.4771 11.0132 20.3178 7.80172 16.5344 4.22264L13.4364 1.29217C14.2769 1.14684 15.1324 1.07382 15.9996 1.07382C18.0148 1.07382 19.9696 1.46828 21.8094 2.24644H21.8098ZM10.1902 2.24644C10.836 1.97333 11.496 1.74783 12.1675 1.56958L15.7967 5.0026C19.6192 8.61852 23.82 11.864 28.2835 14.6506C20.3504 12.6214 12.8279 9.37808 5.90784 5.00332C7.17136 3.84179 8.60884 2.91544 10.1902 2.24644ZM2.24644 10.1902C2.93834 8.55444 3.90586 7.0722 5.12428 5.77788C11.9442 10.119 19.3442 13.3734 27.1463 15.4631H1.08349C1.14756 13.6376 1.53772 11.8661 2.2468 10.1902H2.24644ZM2.24644 21.8098C1.53772 20.1339 1.1472 18.3624 1.08313 16.5369H27.1714C19.3614 18.6248 11.951 21.8796 5.12428 26.2225C3.90586 24.9278 2.93834 23.4459 2.24644 21.8098ZM5.9082 26.997C12.8312 22.6234 20.3586 19.3804 28.2942 17.3534L28.1596 17.4378C23.7913 20.1768 19.6739 23.3586 15.9216 26.8943L12.1682 30.4308C11.4964 30.2525 10.8363 30.027 10.1902 29.7536C8.6092 29.0849 7.17172 28.1586 5.90856 26.997H5.9082ZM29.7536 21.8098C29.0019 23.5869 27.9256 25.1834 26.5546 26.5543C25.1837 27.9252 23.5873 29.0015 21.8101 29.7532C19.9703 30.5314 18.0156 30.9258 16.0004 30.9258C15.1341 30.9258 14.2794 30.8528 13.4396 30.7078L16.6582 27.675C20.3597 24.1872 24.4216 21.0488 28.7306 18.347L30.8943 16.9904C30.7859 18.6559 30.4039 20.2728 29.7539 21.8094L29.7536 21.8098Z" fill="#1B1918"/>
</g>
<defs>
<clipPath id="clip0_1083_50505">
<rect width="32" height="32" fill="white"/>
</clipPath>
</defs>
</svg>
